<svg width="72" height="79" xmlns="http://www.w3.org/2000/svg" fill="none">

 <g>
  <title>Layer 1</title>
  <g>
   <circle fill="#28ABE3" r="17.5" cy="59.44346" cx="52.57273"/>
  </g>
  <g>
   <path fill="#28ABE3" d="m42,16.75l-26.5,0l-1.5,-1.5l0,-6.5l2,-0.5l5.5,0l2,-4.5l4,-1.5l2.5,0l2.5,3.5l2.5,3l7,0l0,8z"/>
  </g>
  <path id="svg_1" fill="#2B2B2B" d="m28.0361,0.26794c0.1641,0.05536 0.3281,0.12097 0.4962,0.16403c2.7044,0.68481 4.4923,2.36196 5.2837,5.03353c0.1722,0.58228 0.4183,0.6971 0.9452,0.6848c1.2773,-0.0287 2.5567,-0.01025 3.8361,-0.01025c2.7249,0.00205 4.1232,1.37781 4.1499,4.08835c0.002,0.1784 0,0.3567 0,0.652c0.3014,0 0.57,0 0.8406,0c2.8397,0 5.6773,-0.0041 8.517,0.002c1.3307,0.0021 1.8801,0.5413 1.8842,1.8494c0.0062,2.4337 0.0062,4.8695 0,7.3032c-0.0041,1.099 -0.5638,1.751 -1.4885,1.7695c-0.9411,0.0184 -1.5685,-0.6725 -1.5746,-1.7777c-0.0123,-1.9929 -0.0041,-3.9878 -0.0041,-6.0258c-2.7351,0 -5.4047,0 -8.1746,0c0,0.3362 0.0082,0.6602 -0.0021,0.9821c-0.0635,2.0708 -1.5459,3.6065 -3.6065,3.6126c-8.0823,0.0205 -16.1626,0.0205 -24.245,0c-2.1159,-0.0061 -3.5716,-1.548 -3.5983,-3.6782c-0.0041,-0.2809 0,-0.5598 0,-0.9001c-2.731,0 -5.42307,0 -8.16229,0c0,20.6179 0,41.2339 0,61.8785c12.87799,0 25.70889,0 38.52549,0c-7.7379,-6.2084 -10.7888,-13.9442 -7.332,-23.5827c2.2103,-6.1592 8.2894,-11.6315 16.5543,-12.4291c0.0123,-0.2542 0.0369,-0.5228 0.0369,-0.7914c0.0041,-1.6648 -0.0041,-3.3317 0.0041,-4.9966c0.0061,-1.1072 0.6151,-1.8248 1.5316,-1.833c0.9349,-0.0082 1.5295,0.6848 1.5336,1.8084c0.0061,1.917 0.002,3.832 0.002,5.7409c1.1216,0.2091 2.1816,0.3567 3.2149,0.6089c8.9866,2.2021 15.2482,10.6576 14.7705,19.9168c-0.4982,9.6672 -7.7461,17.4113 -17.3375,18.5308c-0.1742,0.0205 -0.3424,0.0861 -0.5125,0.1312c-17.7004,0 -35.4008,0 -53.10116,0c-0.81808,-0.5167 -1.02926,-1.2733 -1.02311,-2.2123c0.0328,-4.1232 0.01435,-8.2464 0.01435,-12.3696c0,-17.1324 0,-34.2649 0,-51.3973c0,-1.671 0.47363,-2.1405 2.14668,-2.1405c2.75973,0 5.5215,0 8.28124,0c0.2686,0 0.5392,0 0.8242,0c0.0123,-0.2645 0.041,-0.4183 0.0246,-0.5659c-0.2645,-2.32712 1.4229,-4.34053 4.1991,-4.1888c1.4987,0.08201 3.0078,0.01435 4.4861,0.01435c0.8754,-2.71667 1.8924,-4.12319 3.7725,-5.05198c0.7217,-0.35881 1.5255,-0.55153 2.2923,-0.82013c0.6643,0 1.3306,0 1.9949,0zm40.9059,59.11676c-0.0472,-9.1342 -7.457,-16.5235 -16.5317,-16.4845c-9.0009,0.0389 -16.4579,7.6066 -16.4046,16.6485c0.0533,9.0645 7.4775,16.4149 16.544,16.3759c9.046,-0.041 16.4395,-7.498 16.3923,-16.5399zm-41.9802,-43.8542c3.9099,0 7.8219,-0.0123 11.7319,0.0123c0.7217,0.0041 1.0149,-0.2255 0.9965,-0.9719c-0.039,-1.4844 -0.0288,-2.9709 -0.0042,-4.4553c0.0103,-0.66224 -0.2562,-0.91443 -0.9123,-0.90623c-1.8904,0.02256 -3.7829,0.01025 -5.6753,0.0082c-1.5644,-0.00205 -1.9827,-0.39981 -2.0811,-1.9683c-0.1435,-2.28815 -1.8924,-3.94481 -4.1109,-3.89765c-2.1569,0.04511 -3.8505,1.78582 -3.9222,4.02477c-0.0431,1.34501 -0.5372,1.83708 -1.8822,1.84118c-1.8925,0.00615 -3.7829,0 -5.6753,0.00205c-0.9964,0.00205 -1.0621,0.06561 -1.0641,1.02718c-0.0021,1.4353 -0.0041,2.8684 0,4.3036c0.002,0.9309 0.0533,0.9821 1.0169,0.9842c3.8628,-0.0041 7.7215,-0.0041 11.5823,-0.0041z"/>
  <path id="svg_2" fill="#2B2B2B" d="m27.2488,31.6665c-4.5004,0 -9.0009,0 -13.5013,0c-0.2809,0 -0.5659,0.0082 -0.8427,-0.0267c-0.6951,-0.0902 -1.2158,-0.6376 -1.2896,-1.3224c-0.0759,-0.6951 0.2952,-1.3656 0.9492,-1.5849c0.3301,-0.1108 0.7013,-0.1354 1.0539,-0.1354c9.128,-0.0061 18.256,-0.0061 27.3861,0c0.3526,0 0.7237,0.0246 1.0538,0.1313c0.6541,0.2132 1.058,0.9144 0.9739,1.5726c-0.0881,0.6889 -0.6069,1.2445 -1.2876,1.3347c-0.3014,0.041 -0.613,0.0287 -0.9185,0.0287c-4.525,0.0021 -9.0521,0.0021 -13.5772,0.0021z"/>
  <path id="svg_3" fill="#2B2B2B" d="m23.7141,42.892c-3.3215,0 -6.6451,0 -9.9666,0c-0.2563,0 -0.5126,0.0102 -0.7668,-0.0144c-0.7361,-0.0697 -1.2896,-0.611 -1.3676,-1.3245c-0.082,-0.7566 0.3486,-1.4352 1.0908,-1.6321c0.3158,-0.084 0.6561,-0.0984 0.9842,-0.0984c6.6963,-0.0061 13.3906,-0.0041 20.0869,-0.0041c0.205,0 0.4101,-0.0082 0.6131,0.0144c0.941,0.1005 1.5274,0.7483 1.4844,1.6259c-0.041,0.8406 -0.652,1.4168 -1.5808,1.4291c-1.3799,0.0184 -2.7597,0.0061 -4.1396,0.0061c-2.1446,-0.002 -4.2913,-0.002 -6.438,-0.002z"/>
  <path id="svg_4" fill="#2B2B2B" d="m20.1752,54.1277c-2.2471,0 -4.4922,0.0041 -6.7393,-0.002c-1.1564,-0.0041 -1.8146,-0.5515 -1.8289,-1.4967c-0.0144,-0.937 0.6684,-1.5685 1.7776,-1.5706c4.5435,-0.0123 9.089,-0.0123 13.6325,0c1.2897,0.0041 2.0709,0.9452 1.7264,2.0114c-0.2235,0.693 -0.7709,1.0518 -1.6751,1.0559c-2.2964,0.0061 -4.5948,0 -6.8932,0.002z"/>
  <path id="svg_5" fill="#2B2B2B" d="m20.2245,65.3614c-2.3538,0 -4.7076,0.0144 -7.0593,-0.0082c-0.9247,-0.0102 -1.5295,-0.6192 -1.5562,-1.4598c-0.0287,-0.8673 0.5762,-1.5029 1.5234,-1.5911c0.1784,-0.0164 0.3568,-0.0102 0.5372,-0.0102c4.3487,0 8.6974,0 13.0441,0c0.1784,0 0.3588,-0.0062 0.5372,0.0082c0.9554,0.0779 1.5705,0.6971 1.5582,1.5603c-0.0123,0.8693 -0.6335,1.4865 -1.6033,1.4967c-2.3251,0.0185 -4.6542,0.0041 -6.9813,0.0041z"/>
  <path id="svg_6" fill="#2B2B2B" d="m53.9809,26.9467c0.0082,0.8426 -0.6438,1.5254 -1.4762,1.5459c-0.855,0.0205 -1.587,-0.6971 -1.5706,-1.5418c0.0144,-0.8366 0.6889,-1.4947 1.5296,-1.4927c0.8549,0.0021 1.509,0.6438 1.5172,1.4886z"/>
  <path id="svg_7" fill="#2B2B2B" d="m50.932,68.0042c0,-2.8335 0.0102,-5.3411 -0.0185,-7.8486c-0.002,-0.2091 -0.2296,-0.4798 -0.4264,-0.6089c-0.4675,-0.3096 -0.9862,-0.5372 -1.4701,-0.8222c-1.9478,-1.1462 -2.9279,-2.8479 -2.6941,-5.1115c0.2358,-2.2963 1.4434,-3.9714 3.586,-4.8654c0.6233,-0.2604 1.0723,-0.4285 1.1256,-1.2425c0.0492,-0.7709 0.7914,-1.2219 1.5521,-1.1686c0.7237,0.0492 1.3409,0.5638 1.3778,1.3019c0.0267,0.5598 0.2891,0.6643 0.7525,0.8324c0.8775,0.3199 1.7468,0.7238 2.5321,1.2261c0.8529,0.5454 0.978,1.5542 0.4183,2.2718c-0.5495,0.7053 -1.4168,0.7627 -2.2492,0.1907c-0.406,-0.2789 -0.8591,-0.4901 -1.4147,-0.7997c0,2.1016 -0.0103,4.0166 0.0184,5.9296c0.0021,0.1804 0.2358,0.3916 0.408,0.5269c0.1538,0.1189 0.3732,0.1558 0.5639,0.2255c2.6121,0.9575 4.281,2.7146 4.3917,5.5892c0.1128,2.9299 -1.2384,5.1073 -3.791,6.52c-0.4839,0.2686 -1.0272,0.4285 -1.5377,0.6356c-0.1928,1.7428 -0.6213,2.362 -1.6136,2.3332c-0.9555,-0.0266 -1.4148,-0.6643 -1.5624,-2.2409c-1.509,-0.1108 -2.9012,-0.6336 -4.1765,-1.4763c-0.8939,-0.5905 -1.1625,-1.4434 -0.6868,-2.2184c0.4736,-0.773 1.3532,-0.9083 2.284,-0.4183c0.7996,0.4183 1.6321,0.7709 2.6306,1.2384zm3.1042,-0.5823c1.4659,-0.5638 2.4173,-2.1364 2.2881,-3.6967c-0.1066,-1.302 -1.0292,-2.3825 -2.2881,-2.649c0,2.1016 0,4.1929 0,6.3457zm-3.1493,-15.771c-0.9862,0.5987 -1.4824,1.3696 -1.5132,2.4112c-0.0328,1.0477 0.609,1.6566 1.5132,2.1938c0,-1.5582 0,-3.016 0,-4.605z"/>
 </g>
</svg>