<svg width="29" height="28" viewBox="0 0 29 28" fill="none" xmlns="http://www.w3.org/2000/svg">
<path fill-rule="evenodd" clip-rule="evenodd" d="M14.6665 0C7.07266 0 0.916565 6.20715 0.916565 13.864C0.916565 21.5209 7.07266 27.728 14.6665 27.728C22.2604 27.728 28.4165 21.5209 28.4165 13.864C28.4165 6.20715 22.2604 0 14.6665 0ZM11.6434 6.51453C12.4256 6.47865 12.6756 6.46987 14.6672 6.46987H14.6649C16.6572 6.46987 16.9062 6.47865 17.6885 6.51453C18.4692 6.55057 19.0023 6.67523 19.4699 6.85807C19.9526 7.04679 20.3605 7.2994 20.7684 7.7107C21.1764 8.12171 21.427 8.53422 21.6149 9.02056C21.7952 9.49073 21.9189 10.028 21.9556 10.8152C21.9907 11.6039 21.9999 11.8559 21.9999 13.8641C21.9999 15.8722 21.9907 16.1236 21.9556 16.9124C21.9189 17.6992 21.7952 18.2367 21.6149 18.707C21.427 19.1932 21.1764 19.6057 20.7684 20.0167C20.361 20.428 19.9525 20.6812 19.4703 20.8701C19.0037 21.053 18.4702 21.1776 17.6895 21.2136C16.9073 21.2495 16.6581 21.2583 14.6663 21.2583C12.6749 21.2583 12.4251 21.2495 11.6428 21.2136C10.8623 21.1776 10.3292 21.053 9.86265 20.8701C9.3806 20.6812 8.97148 20.428 8.56402 20.0167C8.15622 19.6057 7.90568 19.1932 7.71822 18.7068C7.53701 18.2367 7.41343 17.6994 7.37751 16.9122C7.3421 16.1235 7.33322 15.8722 7.33322 13.8641C7.33322 11.8559 7.34239 11.6038 7.3774 10.815C7.41251 10.0282 7.53627 9.49073 7.71805 9.02039C7.90597 8.53422 8.15656 8.12171 8.56448 7.7107C8.97211 7.29958 9.38123 7.0469 9.86356 6.85807C10.3299 6.67523 10.8627 6.55057 11.6434 6.51453Z" fill="white"/>
<path fill-rule="evenodd" clip-rule="evenodd" d="M14.0095 7.80165C14.1372 7.80148 14.2747 7.80154 14.4229 7.8016L14.6674 7.80165C16.6254 7.80165 16.8575 7.80876 17.6307 7.84417C18.3457 7.87716 18.7337 7.9976 18.9922 8.09881C19.3345 8.23283 19.5784 8.39308 19.835 8.65189C20.0916 8.91069 20.2505 9.15718 20.3838 9.50223C20.4841 9.76259 20.6038 10.1539 20.6363 10.8748C20.6714 11.6543 20.679 11.8885 20.679 13.8618C20.679 15.8352 20.6714 16.0694 20.6363 16.8489C20.6036 17.5698 20.4841 17.9611 20.3838 18.2215C20.2508 18.5665 20.0916 18.8123 19.835 19.0709C19.5783 19.3297 19.3346 19.4899 18.9922 19.624C18.7341 19.7256 18.3457 19.8458 17.6307 19.8787C16.8576 19.9142 16.6254 19.9219 14.6674 19.9219C12.7092 19.9219 12.4771 19.9142 11.7041 19.8787C10.9891 19.8454 10.601 19.725 10.3423 19.6238C10.0001 19.4898 9.75568 19.3295 9.49902 19.0707C9.24235 18.8119 9.08348 18.5661 8.95022 18.2208C8.84985 17.9605 8.73023 17.5692 8.69768 16.8483C8.66256 16.0688 8.65552 15.8346 8.65552 13.86C8.65552 11.8854 8.66256 11.6525 8.69768 10.873C8.7304 10.152 8.84985 9.76075 8.95022 9.5001C9.08314 9.15499 9.24235 8.90855 9.49902 8.64975C9.75568 8.39095 10.0001 8.2307 10.3423 8.09639C10.6008 7.99471 10.9891 7.87456 11.7041 7.8414C12.3805 7.81061 12.6428 7.80136 14.0095 7.7998V7.80165ZM18.5819 9.02946C18.0961 9.02946 17.7018 9.42644 17.7018 9.91649C17.7018 10.4064 18.0961 10.8038 18.5819 10.8038C19.0677 10.8038 19.4619 10.4064 19.4619 9.91649C19.4619 9.42661 19.0677 9.02946 18.5819 9.02946ZM10.9014 13.8636C10.9014 11.7665 12.5875 10.0663 14.6672 10.0662C16.747 10.0662 18.4328 11.7665 18.4328 13.8636C18.4328 15.9607 16.7471 17.6601 14.6674 17.6601C12.5876 17.6601 10.9014 15.9607 10.9014 13.8636Z" fill="white"/>
<path d="M14.6673 11.3989C16.0172 11.3989 17.1117 12.5024 17.1117 13.8638C17.1117 15.225 16.0172 16.3286 14.6673 16.3286C13.3172 16.3286 12.2228 15.225 12.2228 13.8638C12.2228 12.5024 13.3172 11.3989 14.6673 11.3989Z" fill="white"/>
</svg>
