<svg width="68" height="78" viewBox="0 0 68 78" fill="none" xmlns="http://www.w3.org/2000/svg">
<path d="M61.84 33.4867C59.5094 35.6676 58.9598 38.1268 60.1313 41.1323C60.8999 43.1086 60.0548 44.9457 58.0858 45.5742C54.9885 46.5592 53.5484 48.3983 53.2405 51.7498C53.067 53.6607 51.8376 54.8861 50.1061 54.7806C49.0565 54.7806 47.9883 54.6498 46.9634 54.8101C45.0749 55.1075 43.5728 56.1769 42.7381 57.9317C41.6512 60.218 39.1863 60.4416 37.5623 59.1634C35.4031 57.4634 32.6034 57.5752 30.3492 59.1887C28.3946 60.5871 26.5164 60.1589 25.3552 58.0498C23.9419 55.483 21.4707 54.2871 18.6524 54.8038C16.5573 55.1877 14.9271 53.9707 14.7783 51.8152C14.5511 48.5291 12.9332 46.4579 9.836 45.5383C7.97849 44.9879 7.13548 43.1213 7.82352 41.2715C9.05084 37.9813 8.56115 35.8152 6.0404 33.3707C4.67464 32.0462 4.63332 29.9602 6.03627 28.6757C8.48884 26.4295 9.07357 23.8142 7.81113 20.6947C7.05283 18.8197 8.04047 17.0059 10.0405 16.4174C12.4518 15.7087 13.9932 14.1311 14.5944 11.636C14.7287 11.0771 14.7287 10.4865 14.7969 9.91281C15.0097 8.13902 16.5925 6.91782 18.3281 7.18358C21.7538 7.70875 23.727 6.74276 25.5329 3.65287C26.504 1.99087 28.4648 1.491 30.0062 2.60884C32.6964 4.5598 35.3184 4.55347 38.0065 2.60252C39.5933 1.45303 41.5707 1.9993 42.5397 3.80684C43.6369 5.84849 45.265 7.08023 47.5399 7.31645C48.1949 7.38394 48.8767 7.29747 49.5358 7.20256C51.5132 6.91782 53.0897 8.11793 53.2157 10.1617C53.3686 12.6336 54.3274 14.5761 56.4762 15.8015C56.9659 16.0799 57.5155 16.2592 58.0527 16.428C60.0176 17.0459 60.8999 18.8978 60.1437 20.8593C58.9577 23.9407 59.4866 26.3008 61.871 28.5682C63.3876 30.0108 63.3752 32.0504 61.84 33.4867Z" fill="#28ABE3"/>
<circle cx="34" cy="31" r="20" fill="white"/>
<path d="M40.4684 0C41.6267 0.331803 42.791 0.677683 43.6436 1.58863C44.1524 2.13158 44.6069 2.74089 44.999 3.37635C45.8235 4.71361 46.845 5.27667 48.3995 4.99716C52.2142 4.30942 55.0154 6.84319 55.5865 9.62028C55.667 10.0124 55.6871 10.4166 55.7293 10.8148C55.9123 12.5442 56.588 13.3847 58.255 13.8694C59.6044 14.2595 60.7245 14.9794 61.5389 16.1236C62.8078 17.9073 63.0833 19.8438 62.305 21.905C61.5369 23.9401 61.7118 24.7344 63.3045 26.2486C65.8704 28.6879 65.8543 32.6816 63.2723 35.1048C61.7219 36.5607 61.5308 37.3972 62.295 39.384C63.582 42.7322 61.8446 46.3016 58.426 47.3996C57.7563 47.6147 57.1309 47.9727 56.401 48.3025C56.6423 48.7449 56.7871 49.0264 56.9439 49.2999C60.4751 55.4292 64.0103 61.5545 67.5335 67.6898C67.7406 68.0518 67.9457 68.4661 67.9718 68.8682C68.0402 69.8797 67.079 70.5735 66.0011 70.292C63.6765 69.6867 61.3599 69.0412 59.0413 68.4138C58.802 68.3494 58.5587 68.2911 58.2369 68.2107C58.1344 68.5465 58.0258 68.8702 57.9373 69.2C57.3682 71.3578 56.7871 73.5135 56.2441 75.6772C56.0672 76.3811 55.7313 76.916 55.0677 77.2236C54.7661 77.2236 54.4665 77.2236 54.1648 77.2236C53.7827 76.7772 53.3202 76.377 53.0307 75.8763C50.0444 70.7384 47.0843 65.5864 44.1162 60.4384C43.9855 60.2112 43.8407 59.994 43.702 59.7708C40.9309 61.6691 38.4534 61.8018 36.1248 60.2052C34.4839 59.0811 33.5186 59.071 31.8636 60.2032C30.6108 61.0598 29.2434 61.4057 27.7352 61.2649C26.42 61.1423 25.308 60.5651 24.2824 59.7426C24.0994 60.0503 23.9406 60.3057 23.7918 60.5651C20.8498 65.6709 17.9178 70.7826 14.9578 75.8763C14.6662 76.377 14.2057 76.7772 13.8236 77.2236C13.522 77.2236 13.2223 77.2236 12.9207 77.2236C12.2169 76.9099 11.9072 76.3288 11.7242 75.6049C11.147 73.3204 10.5317 71.0441 9.92842 68.7657C9.88418 68.6008 9.82386 68.4379 9.74945 68.2066C7.65206 68.7717 5.58281 69.3307 3.51156 69.8898C3.02893 70.0205 2.5443 70.1512 2.06369 70.288C1.37193 70.483 0.760607 70.3664 0.31217 69.7772C-0.140289 69.184 -0.0618628 68.5726 0.298093 67.9492C2.18233 64.6936 4.05853 61.4318 5.93673 58.1701C7.71439 55.0833 9.49407 51.9986 11.2697 48.9098C11.3441 48.7811 11.4044 48.6423 11.5613 48.3286C10.9339 48.027 10.3447 47.661 9.70521 47.4519C7.22775 46.6435 5.67934 44.9885 5.36161 42.4085C5.23693 41.3849 5.45612 40.2547 5.77787 39.2573C6.35903 37.4576 6.21223 36.4802 4.83072 35.2053C2.0838 32.6695 2.06771 28.6939 4.79453 26.1501C6.22229 24.8189 6.44349 23.8496 5.73162 22.0498C4.36821 18.6051 6.11772 14.9734 9.65896 13.8915C11.4507 13.3445 12.1002 12.5422 12.2691 10.666C12.617 6.81503 15.5148 4.49241 19.3597 4.98107C21.3022 5.22841 22.1488 4.81014 23.1201 3.10688C24.0029 1.56249 25.314 0.599256 27.0253 0.160874C27.1902 0.118645 27.3511 0.056306 27.514 0.00402186C28.1153 0.00402186 28.7185 0.00402186 29.3198 0.00402186C30.3856 0.52083 31.4594 1.02557 32.5152 1.56249C33.5045 2.06522 34.4658 2.06522 35.4551 1.56249C36.5109 1.02557 37.5867 0.522841 38.6525 0.00603278C39.2638 0 39.8651 0 40.4684 0ZM49.6684 53.3157C51.3535 53.4163 52.548 52.2459 52.719 50.426C53.0166 47.2286 54.4202 45.4771 57.4346 44.536C59.351 43.9388 60.1735 42.1873 59.4254 40.303C58.2852 37.4374 58.8201 35.0927 61.0884 33.0114C62.5826 31.6419 62.5946 29.6974 61.1186 28.3219C58.798 26.1602 58.2832 23.9099 59.4375 20.972C60.1735 19.0998 59.3148 17.3362 57.4024 16.747C56.8796 16.5861 56.3427 16.4152 55.8681 16.1498C53.7747 14.9814 52.8436 13.1293 52.6948 10.7705C52.5722 8.82194 51.0378 7.67772 49.1114 7.9492C48.4699 8.03969 47.8063 8.12214 47.1688 8.05779C44.9548 7.83256 43.3702 6.65818 42.3023 4.7116C41.3592 2.98824 39.4348 2.46741 37.8904 3.56336C35.2742 5.42146 32.7223 5.4295 30.1041 3.5694C28.6039 2.5036 26.6955 2.98019 25.7504 4.5628C23.9929 7.51081 22.0724 8.43182 18.7363 7.9311C17.0491 7.67772 15.5067 8.84205 15.3016 10.5332C15.2353 11.0822 15.2333 11.6453 15.1025 12.1762C14.5214 14.5591 13.0192 16.0613 10.6745 16.739C8.7279 17.3 7.76668 19.0294 8.50469 20.8171C9.73337 23.7893 9.16427 26.2828 6.7773 28.4265C5.41389 29.6491 5.4521 31.6399 6.78333 32.9028C9.23466 35.2315 9.71125 37.2987 8.51877 40.4337C7.84712 42.1993 8.66959 43.977 10.4754 44.5018C13.4898 45.3786 15.0663 47.3533 15.2855 50.4863C15.4303 52.5395 17.0169 53.6998 19.056 53.3338C21.7989 52.8411 24.204 53.9833 25.5795 56.4286C26.7096 58.4396 28.5375 58.8478 30.4399 57.5145C32.6338 55.9762 35.3586 55.8696 37.458 57.4904C39.0386 58.711 41.4397 58.4979 42.4974 56.318C43.3098 54.6449 44.7718 53.6254 46.6098 53.3419C47.6072 53.189 48.6468 53.3157 49.6684 53.3157ZM22.3037 57.1184C21.4832 56.308 20.6869 56.0968 19.424 56.3201C16.7294 56.7966 14.2157 55.574 12.9247 53.1649C12.8402 53.006 12.7397 52.8572 12.603 52.632C9.95055 57.237 7.35042 61.7496 4.65778 66.4209C5.05796 66.3284 5.29123 66.2822 5.52047 66.2198C7.11514 65.7875 8.70578 65.3411 10.3025 64.9208C11.3321 64.6493 12.0238 65.0455 12.3255 66.055C12.4984 66.6321 12.6351 67.2173 12.79 67.8004C13.1298 69.0693 13.4717 70.3382 13.8578 71.774C16.7374 66.7769 19.5246 61.9406 22.3037 57.1184ZM54.1065 71.7298C54.207 71.4342 54.2734 71.2733 54.3176 71.1064C54.7419 69.5077 55.1562 67.905 55.5886 66.3063C55.9445 64.9932 56.5699 64.6312 57.8669 64.9771C59.4877 65.4094 61.1045 65.8498 62.7253 66.2822C62.8701 66.3204 63.027 66.3123 63.2864 66.3365C60.6199 61.7113 58.0117 57.1908 55.3613 52.5938C53.837 55.8234 50.8609 56.859 48.305 56.2919C47.3417 56.0767 46.4207 56.312 45.6767 57.1023C48.4679 61.9446 51.247 66.7648 54.1065 71.7298Z" fill="#2B2B2B"/>
<path d="M12.9227 30.6485C12.9448 19.9343 21.0086 10.869 31.5821 9.67254C43.2897 8.34734 53.8028 16.8596 54.9531 28.5974C55.8741 37.9804 50.4285 46.8908 41.6749 50.3194C41.3974 50.428 41.1058 50.5306 40.8122 50.5668C40.0843 50.6552 39.4689 50.239 39.2477 49.5512C39.0286 48.8655 39.2859 48.1657 39.9174 47.8058C40.1547 47.669 40.4201 47.5825 40.6755 47.48C47.9148 44.5561 52.544 37.2484 52.0312 29.5506C51.5023 21.6094 45.9964 15.0075 38.2885 13.0811C27.7895 10.4548 17.1899 17.8671 16.0597 28.6255C15.189 36.9045 19.7598 44.4556 27.5059 47.5383C27.5763 47.5665 27.6427 47.5986 27.7131 47.6288C28.6602 48.037 29.0503 48.8374 28.7065 49.6719C28.3807 50.4642 27.5582 50.7779 26.6171 50.428C23.657 49.324 21.081 47.6248 18.8851 45.3524C15.0563 41.3929 12.9106 36.0921 12.9227 30.6485Z" fill="#2B2B2B"/>
<path d="M34.0012 37.2343C31.9983 38.6802 30.0457 40.0899 28.0951 41.4995C27.1842 42.1551 26.6091 42.2295 25.9696 41.779C25.3422 41.3346 25.2115 40.7112 25.5392 39.6796C26.2169 37.5521 26.8785 35.4205 27.5884 33.303C27.7472 32.8264 27.6427 32.5851 27.2586 32.3076C25.4266 30.9864 23.6128 29.6411 21.7969 28.2998C21.0167 27.7227 20.7593 27.1395 20.9684 26.4578C21.1956 25.7238 21.7627 25.3618 22.736 25.3578C24.944 25.3518 27.152 25.3357 29.358 25.3699C29.9452 25.3779 30.2267 25.2412 30.4117 24.6319C31.0592 22.4963 31.7832 20.3828 32.483 18.2633C32.7806 17.3644 33.2753 16.9481 34.0233 16.9783C34.8398 17.0104 35.2701 17.5031 35.5094 18.2452C36.2072 20.419 36.9352 22.5827 37.6249 24.7586C37.7677 25.211 37.9728 25.3779 38.4655 25.3699C40.6976 25.3397 42.9297 25.3558 45.1639 25.3578C46.2055 25.3598 46.7807 25.6997 47.018 26.4417C47.2392 27.1355 46.9777 27.7186 46.1452 28.334C44.3696 29.6471 42.602 30.9723 40.8042 32.2513C40.3276 32.5891 40.2552 32.8847 40.4422 33.4317C41.1521 35.521 41.8016 37.6305 42.4713 39.7359C42.7789 40.7052 42.6402 41.3346 42.0329 41.771C41.4095 42.2174 40.8203 42.1631 39.9697 41.5498C37.9929 40.1281 36.0242 38.6983 34.0012 37.2343ZM38.3046 36.619C37.8522 35.1973 37.458 33.9887 37.082 32.7741C36.8085 31.8853 36.9814 31.3524 37.7154 30.7974C38.3549 30.3147 39.0084 29.8482 39.6539 29.3716C40.04 29.0861 40.4201 28.7945 40.8022 28.5049C39.9013 28.3702 39.0788 28.3682 38.2563 28.3722C35.805 28.3822 35.6502 28.5994 34.8518 25.9189C34.6146 25.1245 34.325 24.3483 34.0575 23.562C33.6332 24.4167 33.3577 25.2452 33.0863 26.0737C32.3362 28.3702 32.3362 28.3702 29.9432 28.3702C29.0403 28.3702 28.1374 28.3702 27.2345 28.3702C28.077 29.1725 28.9437 29.808 29.8084 30.4455C31.1477 31.4308 31.2402 31.7224 30.7395 33.2909C30.4057 34.3326 30.0799 35.3762 29.6878 36.621C30.836 35.7925 31.8073 35.0887 32.7806 34.3889C33.7418 33.6971 34.2566 33.6971 35.2219 34.3929C36.1911 35.0907 37.1564 35.7905 38.3046 36.619Z" fill="#2B2B2B"/>
<path d="M33.9369 51.7492C33.1164 51.7231 32.4729 51.0414 32.4971 50.223C32.5192 49.4206 33.223 48.7409 34.0173 48.755C34.8498 48.7691 35.5396 49.5111 35.4933 50.3416C35.4491 51.16 34.7694 51.7754 33.9369 51.7492Z" fill="#2B2B2B"/>
</svg>
