<svg width="19" height="12" viewBox="0 0 19 12" fill="none" xmlns="http://www.w3.org/2000/svg">
<path d="M18.9986 5.80661C18.8302 5.57825 18.6933 5.32087 18.4893 5.12671C16.8023 3.52631 15.1037 1.93688 13.4072 0.346156C12.956 -0.0770044 12.3651 -0.114418 11.94 0.246171C11.4861 0.631273 11.4765 1.2544 11.9297 1.68208C13.0347 2.72579 14.1438 3.76499 15.2516 4.80676C15.3159 4.8674 15.3762 4.93061 15.4782 5.03253C15.3296 5.03253 15.2311 5.03253 15.1325 5.03253C8.06081 5.03253 8.22657 5.03253 1.15492 5.03253C0.579134 5.03253 0.191628 5.27185 0.046484 5.71565C-0.148639 6.30975 0.292955 6.92063 0.951579 6.96449C1.04537 6.97094 1.13917 6.96707 1.23365 6.96707C8.27107 6.96707 8.07108 6.96707 15.1085 6.96707C15.2105 6.96707 15.3132 6.96707 15.4796 6.96707C15.3817 7.06448 15.318 7.13092 15.2516 7.19349C14.1445 8.23462 13.0375 9.27639 11.9283 10.3162C11.6271 10.5981 11.5251 10.9342 11.6422 11.3122C11.7538 11.6728 12.0249 11.9005 12.4158 11.9779C12.7985 12.054 13.1176 11.9289 13.3907 11.6722C14.6306 10.5052 15.8732 9.3409 17.1152 8.17527C17.5753 7.74308 18.0463 7.32057 18.4899 6.87354C18.6892 6.67292 18.8316 6.42199 19 6.19364C18.9986 6.06463 18.9986 5.93562 18.9986 5.80661Z" fill="white"/>
</svg>
