<svg width="117" height="48" viewBox="0 0 117 48" fill="none" xmlns="http://www.w3.org/2000/svg">
<path d="M7.32 38.3V25.47L29.79 9.06L35.98 13.59L42.19 9.06L29.79 0L0 21.75V38.3H7.32Z" fill="#28ABE3"/>
<path d="M55.256 34.282L50.264 19.852H46.364L53.02 38H57.44L64.096 19.852H60.222L55.256 34.282ZM76.2984 25.494C76.2984 27.132 75.3884 28.198 73.3604 28.198H70.3184V22.868H73.3604C75.3884 22.868 76.2984 23.882 76.2984 25.494ZM66.6784 19.852V38H70.3184V30.928H72.0344L76.0384 38H80.2504L75.9084 30.642C78.8204 29.862 80.0424 27.626 80.0424 25.416C80.0424 22.374 77.8584 19.852 73.4904 19.852H66.6784ZM91.1966 34.282L86.2046 19.852H82.3046L88.9606 38H93.3806L100.037 19.852H96.1626L91.1966 34.282ZM115.307 32.748C115.307 26.352 105.999 28.38 105.999 24.74C105.999 23.258 107.065 22.556 108.495 22.608C110.055 22.634 111.017 23.57 111.095 24.766H115.099C114.865 21.49 112.317 19.592 108.599 19.592C104.855 19.592 102.203 21.568 102.203 24.844C102.177 31.422 111.537 29.056 111.537 32.982C111.537 34.282 110.523 35.192 108.807 35.192C107.117 35.192 106.155 34.23 106.051 32.774H102.151C102.203 36.206 105.115 38.182 108.885 38.182C113.019 38.182 115.307 35.608 115.307 32.748Z" fill="white"/>
<path d="M31.5798 38.3V25.47L54.0498 9.06H66.4498L54.0498 0L24.2598 21.75V38.3H31.5798Z" fill="#E4068F"/>
</svg>
