<svg width="15" height="24" viewBox="0 0 15 24" fill="none" xmlns="http://www.w3.org/2000/svg">
<path d="M7.96254 0C8.51253 0.105625 9.07488 0.1675 9.61004 0.324375C11.3811 0.8425 12.7691 1.90813 13.7807 3.46563C14.6347 4.78125 15.0049 6.23938 14.9999 7.81C14.9901 10.605 14.9907 13.4 14.9999 16.1944C15.0055 17.7644 14.6378 19.2244 13.7825 20.5394C12.7512 22.1263 11.3305 23.195 9.52291 23.7069C9.01556 23.8506 8.48349 23.905 7.96254 24C7.65418 24 7.34581 24 7.03745 24C6.48004 23.8937 5.90904 23.8331 5.36708 23.6725C3.60712 23.1506 2.22473 22.0894 1.21744 20.5387C0.362795 19.2237 -0.00489457 17.7644 4.9158e-05 16.1944C0.00931865 13.3919 0.00870068 10.5887 0.000667124 7.78625C-0.0042766 5.98375 0.493186 4.35375 1.59626 2.93375C2.82045 1.3575 4.41974 0.41125 6.37746 0.095C6.59684 0.059375 6.81745 0.03125 7.03683 0C7.34581 0 7.65418 0 7.96254 0ZM14.2083 10.42C9.72065 10.42 5.26265 10.42 0.797843 10.42C0.794753 10.4825 0.791046 10.5281 0.791046 10.5744C0.791046 12.5194 0.77745 14.4644 0.800315 16.4094C0.806495 16.9437 0.860876 17.4925 0.995592 18.0069C1.66052 20.5419 3.24499 22.2212 5.73354 22.9425C7.70979 23.5156 9.59768 23.185 11.2853 21.9956C13.2381 20.6194 14.1953 18.6787 14.2065 16.2687C14.2151 14.4331 14.2083 12.5975 14.2083 10.7619C14.2083 10.6538 14.2083 10.545 14.2083 10.42ZM7.10295 0.861875C7.05722 0.846875 7.04301 0.83875 7.02941 0.83875C6.98307 0.83875 6.93672 0.839375 6.89099 0.84375C5.39984 0.986875 4.09284 1.56313 2.98853 2.585C1.78968 3.695 1.0475 5.07125 0.867055 6.70687C0.762619 7.65562 0.793517 8.61938 0.763855 9.58375C2.90573 9.58375 4.99569 9.58375 7.10357 9.58375C7.10357 9.06563 7.10851 8.56625 7.09739 8.0675C7.09615 8.0075 7.02076 7.92062 6.9602 7.89437C6.27179 7.60312 5.93067 7.07812 5.92572 6.32875C5.92078 5.59438 5.92758 4.86062 5.92387 4.12625C5.91955 3.3475 6.25387 2.79938 6.97194 2.49813C7.02756 2.475 7.09677 2.39562 7.09801 2.34125C7.10666 1.85125 7.10295 1.36 7.10295 0.861875ZM7.89704 0.830625C7.89704 1.3575 7.89271 1.855 7.90322 2.35313C7.90445 2.40563 7.98046 2.48 8.03793 2.50437C8.72573 2.795 9.06932 3.31812 9.07426 4.06812C9.07921 4.83375 9.08353 5.59938 9.07303 6.36438C9.06314 7.09375 8.72079 7.61 8.04844 7.88312C7.92485 7.93313 7.89024 8.00062 7.89333 8.12562C7.90074 8.41437 7.8958 8.70375 7.8958 8.9925C7.8958 9.19125 7.8958 9.39 7.8958 9.5875C10.0235 9.5875 12.1079 9.5875 14.2083 9.5875C14.2083 9.18187 14.2219 8.79187 14.2052 8.40312C14.1756 7.71 14.1991 7.00437 14.073 6.32812C13.7041 4.3425 12.6276 2.8225 10.9294 1.77C10.016 1.20438 9.01247 0.895625 7.89704 0.830625ZM8.28697 5.215C8.28697 4.81687 8.29192 4.41875 8.28574 4.02063C8.27894 3.55563 7.944 3.20688 7.50895 3.2C7.06896 3.19313 6.71672 3.55 6.71363 4.025C6.70807 4.80562 6.70869 5.58625 6.71363 6.36625C6.71672 6.84625 7.05722 7.19812 7.50216 7.19688C7.94709 7.19563 8.28079 6.84375 8.28636 6.36188C8.29068 5.98 8.28759 5.5975 8.28697 5.215Z" fill="white"/>
</svg>
